<svg xmlns="http://www.w3.org/2000/svg" viewBox="0 0 160.75 210.76"><defs><style>.cls-1{font-size:28.21px;font-family:BrandonGrotesque-Regular, Brandon Grotesque;}.cls-1,.cls-2{fill:#fff;}</style></defs><title>Asset 5</title><g id="Layer_2" data-name="Layer 2"><g id="intern"><text class="cls-1" transform="translate(51.55 193.44)">apply</text><path class="cls-2" d="M160.65,89l.1-17.39L142,63l-.31.54a1.7,1.7,0,0,0-.1-.37,60.92,60.92,0,0,0-2.35-6.9l-.26-.69c-.94-2.23-3.2-6.58-3.2-6.58l7.39-19.41L130.92,17.28l-19.22,7.16a4,4,0,0,1,0,.58,52.2,52.2,0,0,0-7.06-3.47A62.08,62.08,0,0,0,97.34,19l-.08.2,0-.22L88.79.08,71.47,0,62.92,18.81,64,18.9a75.82,75.82,0,0,0-7.49,2.58l-.7.29A61.07,61.07,0,0,0,49.29,25a1.35,1.35,0,0,0-.24.13L29.58,17.67,17.29,29.92l7.33,19.63.8-.74a2,2,0,0,0-.19.34A59.54,59.54,0,0,0,21.88,56c-1,2.41-2.6,7.59-2.63,7.77L.09,72.08,0,89.45l19.11,8.73V96.32c.1.37.22.72.3,1.08a63.63,63.63,0,0,0,2.51,7.24,61.1,61.1,0,0,0,3.37,6.9c.16.3.34.6.5.88l-.65-.64-7.5,19.64,12.21,12.34,19.66-7.35-1.59-1.61c.49.29.95.58,1.45.83a61.91,61.91,0,0,0,14.12,5.85,8.22,8.22,0,0,0,1,.29H63.37L71.94,161l17.34-.11L98,141.57l-2,.17c.52-.13,1.05-.22,1.58-.38a61,61,0,0,0,7.25-2.45,63.36,63.36,0,0,0,6.88-3.33l.46-.26-.4.42.09.23,19.37,7.42,12.28-12.25-7.33-19.63-.05.12-.07,0-.87.87c.2-.32.39-.66.57-1a60.19,60.19,0,0,0,3.37-6.91,64.75,64.75,0,0,0,2.41-7.65c0-.09.3.58.3.58Zm-80.28,48.9a57.41,57.41,0,1,1,57.3-57.41A57.36,57.36,0,0,1,80.38,137.93Z"/><path class="cls-2" d="M98.54,70.6V52.4c0-5.19-3.24-9.4-7.25-9.4H68.21c-4,0-7.25,4.21-7.25,9.4V70.6a10.86,10.86,0,0,0-4.83,9v25.5A10.87,10.87,0,0,0,67,116H92.5a10.87,10.87,0,0,0,10.87-10.87V79.63A10.86,10.86,0,0,0,98.54,70.6ZM86.42,105.26H74.15L77.1,93.49a7.36,7.36,0,1,1,6.38,0Zm5.67-36.5H67.4V56.4c0-2.79,1.74-5,3.89-5H88.2c2.15,0,3.89,2.26,3.89,5Z"/></g></g></svg>