<svg xmlns="http://www.w3.org/2000/svg" viewBox="0 0 160.75 208.87"><defs><style>.cls-1{font-size:26.71px;font-family:BrandonGrotesque-Regular, Brandon Grotesque;}.cls-1,.cls-2{fill:#fff;}</style></defs><title>Asset 13</title><g id="Layer_2" data-name="Layer 2"><g id="home"><text class="cls-1" transform="translate(44.69 195.02) scale(1.06 1)">clients</text><path class="cls-2" d="M92.75,42.75a1.46,1.46,0,0,0-2,1.12V64.44a2.78,2.78,0,0,1-3.1,2.91H73.23c-1.91,0-2-1.1-2-2.91V43.87c0-.9-1.74-1.49-2.6-1.1-9.85,4.43-17.05,14-17.05,25A28.61,28.61,0,0,0,68.85,93.89a.83.83,0,0,1,.51.76v22.44a.91.91,0,0,0,.91.91H90.19a.91.91,0,0,0,.91-.91V94.82a1.08,1.08,0,0,1,.67-1c10.26-4.33,17.68-14.88,17.68-26.13C109.44,56.68,102.65,47.17,92.75,42.75ZM73.5,85.26c-.29.67-.69.59-1,.39a1,1,0,0,1-.47-.71c-.23-1.64-1.33-9.47-1.28-10a.42.42,0,0,1,.23-.32c.45-.28,1.1-.1,1.15.29l1.39,10.19A.23.23,0,0,1,73.5,85.26Zm4.15-.12c-.29.67-.69.59-1,.39a1,1,0,0,1-.47-.71c-.23-1.64-1.33-9.47-1.28-10a.42.42,0,0,1,.23-.32c.45-.28,1.1-.1,1.15.29L77.66,85A.24.24,0,0,1,77.65,85.14ZM81.79,85c-.29.67-.69.59-1,.39a1,1,0,0,1-.47-.71c-.23-1.64-1.33-9.47-1.28-10a.44.44,0,0,1,.23-.32c.44-.28,1.1-.1,1.15.29L81.81,84.9A.23.23,0,0,1,81.79,85Zm4.15-.12c-.29.67-.69.59-1,.39a1,1,0,0,1-.47-.71c-.23-1.64-1.32-9.47-1.28-10a.43.43,0,0,1,.23-.32c.44-.28,1.09-.1,1.15.29L86,84.78A.2.2,0,0,1,85.94,84.91Zm4.15-.12c-.29.67-.69.59-1,.39a1,1,0,0,1-.47-.71c-.23-1.64-1.33-9.47-1.28-10a.44.44,0,0,1,.23-.32c.45-.28,1.1-.1,1.15.29L90.1,84.66A.24.24,0,0,1,90.09,84.79Z"/></g><g id="intern"><path class="cls-2" d="M160.65,89l.1-17.39L142,63l-.31.54a1.7,1.7,0,0,0-.1-.37,60.92,60.92,0,0,0-2.35-6.9l-.26-.69c-.94-2.23-3.2-6.58-3.2-6.58l7.39-19.41L130.92,17.28l-19.22,7.16a4,4,0,0,1,0,.58,52.2,52.2,0,0,0-7.06-3.47A62.08,62.08,0,0,0,97.34,19l-.08.2,0-.22L88.79.08,71.47,0,62.92,18.81,64,18.9a75.82,75.82,0,0,0-7.49,2.58l-.7.29A61.07,61.07,0,0,0,49.29,25a1.35,1.35,0,0,0-.24.13L29.58,17.67,17.29,29.92l7.33,19.63.8-.74a2,2,0,0,0-.19.34A59.54,59.54,0,0,0,21.88,56c-1,2.41-2.6,7.59-2.63,7.77L.09,72.08,0,89.45l19.11,8.73V96.32c.1.37.22.72.3,1.08a63.63,63.63,0,0,0,2.51,7.24,61.1,61.1,0,0,0,3.37,6.9c.16.3.34.6.5.88l-.65-.64-7.5,19.64,12.21,12.34,19.66-7.35-1.59-1.61c.49.29.95.58,1.45.83a61.91,61.91,0,0,0,14.12,5.85,8.22,8.22,0,0,0,1,.29H63.37L71.94,161l17.34-.11L98,141.57l-2,.17c.52-.13,1.05-.22,1.58-.38a61,61,0,0,0,7.25-2.45,63.36,63.36,0,0,0,6.88-3.33l.46-.26-.4.42.09.23,19.37,7.42,12.28-12.25-7.33-19.63-.05.12-.07,0-.87.87c.2-.32.39-.66.57-1a60.19,60.19,0,0,0,3.37-6.91,64.75,64.75,0,0,0,2.41-7.65c0-.09.3.58.3.58Zm-80.28,48.9a57.41,57.41,0,1,1,57.3-57.41A57.36,57.36,0,0,1,80.38,137.93Z"/></g></g></svg>