<svg xmlns="http://www.w3.org/2000/svg" viewBox="0 0 160.75 208.87"><defs><style>.cls-1{font-size:26.71px;font-family:BrandonGrotesque-Regular, Brandon Grotesque;}.cls-1,.cls-2{fill:#fff;}</style></defs><title>Asset 11</title><g id="Layer_2" data-name="Layer 2"><g id="home"><text class="cls-1" transform="translate(21.85 195.02) scale(1.06 1)">developers</text><path class="cls-2" d="M119.4,68.22,97.77,60.11a1.75,1.75,0,0,0-.62-.11H60.66a2.29,2.29,0,0,0-.93.2l-18.27,8.1a1.5,1.5,0,0,0-.87,1.6l3.48,21.89a2.09,2.09,0,0,0,.78,1.33C47.68,95.32,58.26,104,58.26,104s-.37-20.93-.37-20.93l-2.3-5.33-.15-.34-.07-.16a.51.51,0,0,0-.07-.11,3.09,3.09,0,0,0-.55-.41l-1.26-1.35c-.83-.56-1.68-2.2-2.5-2.2h.17s-.07,0-.11-.06l.15.06h0c.82,0,1.65,1.49,2.48,2l1.33,1,.33.32a1.57,1.57,0,0,1,.36.34,1.33,1.33,0,0,1,.14.22l.09.18.17.34,2.71,5.26,0,.06V83c1-1.6,2-3.19,2.91-4.8.13-.21.25-.42.39-.63l.21-.33a2.25,2.25,0,0,1,.36-.42,2.29,2.29,0,0,1,1-.49,2.43,2.43,0,0,1,.57-.06l.39,0,3.1.18,6.21.35c2.07.11,4.14.26,6.21.38h0l1.21.27-1.24-.26c-2.07,0-4.15.11-6.22.14l-6.22.11-3.11.05h-.39l-.19,0-.2.09a.66.66,0,0,0-.16.13.82.82,0,0,0-.12.16l-.18.31c-.12.22-.26.43-.38.65-1,1.63-1.9,3.31-2.9,4.94L60.17,104h43.3a1.91,1.91,0,0,0,1.23-.45c2.44-2,12.44-10.4,13.25-11.1a1.73,1.73,0,0,0,.6-1.17c.28-3.35,1.45-17.51,1.78-21.58A1.46,1.46,0,0,0,119.4,68.22Zm-68.2,6h0L51,74.14v0l.18,0v0ZM103.26,68l0,.23a2.14,2.14,0,0,1-.1.37,1.49,1.49,0,0,1-.14.31,3.15,3.15,0,0,1-.76.9,7.79,7.79,0,0,1-1.76,1.08,16.47,16.47,0,0,1-1.79.7,32.58,32.58,0,0,1-3.47.92l-1.65.32a15.83,15.83,0,0,1-1.59.23q-1.55.14-2.94.18c-1.85,0-3.46,0-4.78,0l-1.76,0H77.73l-1.76,0c-1.32,0-2.93.06-4.78,0-.93,0-1.91-.08-2.95-.18s-2.11-.34-3.23-.56a31.55,31.55,0,0,1-3.47-.92,16.43,16.43,0,0,1-1.79-.7A7.84,7.84,0,0,1,58,69.82a3.24,3.24,0,0,1-.76-.89A2.2,2.2,0,0,1,57,68.3,2.87,2.87,0,0,1,57,68s0,0,0-.11v-.2a3.09,3.09,0,0,1,1.45-2,14.42,14.42,0,0,1,4-1.71,50.69,50.69,0,0,1,8.66-1.56,92.61,92.61,0,0,1,18.08,0A50.69,50.69,0,0,1,97.8,64a14.38,14.38,0,0,1,4,1.71,4.87,4.87,0,0,1,.87.76,2.48,2.48,0,0,1,.58,1.16l0,.17v.13S103.26,68,103.26,68Zm3,6.9h0L106,75l.29-.13h0Zm0,0,0-.06h.08Z"/></g><g id="intern"><path class="cls-2" d="M160.65,89l.1-17.39L142,63l-.31.54a1.7,1.7,0,0,0-.1-.37,60.92,60.92,0,0,0-2.35-6.9l-.26-.69c-.94-2.23-3.2-6.58-3.2-6.58l7.39-19.41L130.92,17.28l-19.22,7.16a4,4,0,0,1,0,.58,52.2,52.2,0,0,0-7.06-3.47A62.08,62.08,0,0,0,97.34,19l-.08.2,0-.22L88.79.08,71.47,0,62.92,18.81,64,18.9a75.82,75.82,0,0,0-7.49,2.58l-.7.29A61.07,61.07,0,0,0,49.29,25a1.35,1.35,0,0,0-.24.13L29.58,17.67,17.29,29.92l7.33,19.63.8-.74a2,2,0,0,0-.19.34A59.54,59.54,0,0,0,21.88,56c-1,2.41-2.6,7.59-2.63,7.77L.09,72.08,0,89.45l19.11,8.73V96.32c.1.37.22.72.3,1.08a63.63,63.63,0,0,0,2.51,7.24,61.1,61.1,0,0,0,3.37,6.9c.16.3.34.6.5.88l-.65-.64-7.5,19.64,12.21,12.34,19.66-7.35-1.59-1.61c.49.29.95.58,1.45.83a61.91,61.91,0,0,0,14.12,5.85,8.22,8.22,0,0,0,1,.29H63.37L71.94,161l17.34-.11L98,141.57l-2,.17c.52-.13,1.05-.22,1.58-.38a61,61,0,0,0,7.25-2.45,63.36,63.36,0,0,0,6.88-3.33l.46-.26-.4.42.09.23,19.37,7.42,12.28-12.25-7.33-19.63-.05.12-.07,0-.87.87c.2-.32.39-.66.57-1a60.19,60.19,0,0,0,3.37-6.91,64.75,64.75,0,0,0,2.41-7.65c0-.09.3.58.3.58Zm-80.28,48.9a57.41,57.41,0,1,1,57.3-57.41A57.36,57.36,0,0,1,80.38,137.93Z"/></g></g></svg>