<svg xmlns="http://www.w3.org/2000/svg" viewBox="0 0 50.16 108"><defs><style>.cls-1{fill:#fff;}</style></defs><title>Asset 3</title><g id="Layer_2" data-name="Layer 2"><g id="contact"><path class="cls-1" d="M50,35.34c-.25,2.78-.47,5.42-.72,8-.27,2.92-.59,5.83-.8,8.76-.06.85-.41,1.09-1.17,1.1-4.17,0-8.34.11-12.52.16-1.62,0-1.62,0-1.63,1.64,0,9.41,0,18.83,0,28.24,0,3-.29,6.06-.29,9.09,0,4.74.11,9.47.17,14.21,0,1.4,0,1.4-1.43,1.4-6.19,0-12.39,0-18.58,0-1.07,0-1.4-.29-1.39-1.37,0-4.46,0-8.92,0-13.38,0-1.41.19-2.82.18-4.23-.09-11.38-.23-22.76-.31-34.14,0-1-.34-1.29-1.3-1.27-3,0-6,0-9,0C.3,53.65,0,53.39,0,52.49q0-8,0-16c0-.89.3-1.15,1.17-1.14,3,0,5.95,0,8.92,0,1.06,0,1.42-.29,1.4-1.37-.05-3.64-.12-7.29,0-10.93s.06-7.55,1.41-11.18A16.4,16.4,0,0,1,25.06,1.21,41,41,0,0,1,33.43.09C38.51-.09,43.61.06,48.7,0,49.69,0,50,.33,50,1.3c0,4.67,0,9.34.06,14a19.41,19.41,0,0,0,.13,2c.1.92-.17,1.34-1.21,1.32-2.83-.06-5.66,0-8.49,0a28.73,28.73,0,0,0-3.81.23c-2.13.31-3.13,1.3-3.22,3.42-.17,4.06-.17,8.13-.26,12.2,0,.84.49.87,1.11.87H50Z"/></g></g></svg>