<?xml version="1.0" encoding="utf-8"?>
<!--Generator: Adobe Illustrator 23.0.2, SVG Export Plug-In . SVG Version: 6.00 Build 0)-->
<svg xmlns="http://www.w3.org/2000/svg" xmlns:xlink="http://www.w3.org/1999/xlink" x="0px" y="0px" style="enable-background:new 0 0 168.2 168.4" version="1.1" viewBox="0 0 168.2 168.4" xml:space="preserve">
    <style type="text/css">
        .gear{fill:#E85A36;}
    </style>
    <path d="M145.5,101.2l18.9-8.6l0-17.3l-18.8-8.6l-6.2-14l7.4-19.4L134.6,21l-19.2,7.2L101,22.7l-8.5-19l-17.3,0
	l-8.6,18.8L53,28.7l-19.7-7.3L21,33.6l7.3,19.6c0,0-5.3,14-5.4,14.2L3.7,75.8l0,17.3l19.1,8.7l6,13.6l-7.5,19.6l12.2,12.3l19.7-7.4
	l13.9,5.4l8.6,19.2l17.3,0l8.7-19.4l13.8-5.8l19.5,7.7l12.3-12.2l-7.3-19.6L145.5,101.2z M84.1,141.6
	C84.1,141.6,84.1,141.6,84.1,141.6L84.1,141.6c-31.7,0-57.5-25.6-57.5-57.3s25.6-57.5,57.3-57.5s57.5,25.6,57.5,57.3
	c0,0,0,0.1,0,0.1C141.4,115.9,115.8,141.6,84.1,141.6z" class="gear"/>
</svg>
