<svg style="enable-background:new 0 0 168.2 168.4" version="1.1" viewBox="0 0 168.2 168.4" xmlns="http://www.w3.org/2000/svg">
 <style type="text/css">.gear{fill:#E85A36;}</style>
 <path class="gear" d="m145.5 101.2 18.9-8.6v-17.3l-18.8-8.6-6.2-14 7.4-19.4-12.2-12.3-19.2 7.2-14.4-5.5-8.5-19h-17.3l-8.6 18.8-13.6 6.2-19.7-7.3-12.3 12.2 7.3 19.6s-5.3 14-5.4 14.2l-19.2 8.4v17.3l19.1 8.7 6 13.6-7.5 19.6 12.2 12.3 19.7-7.4 13.9 5.4 8.6 19.2h17.3l8.7-19.4 13.8-5.8 19.5 7.7 12.3-12.2-7.3-19.6 5.5-14zm-61.4 40.4c-31.7 0-57.5-25.6-57.5-57.3s25.6-57.5 57.3-57.5 57.5 25.6 57.5 57.3v0.1c0 31.7-25.6 57.4-57.3 57.4z"/>
 <path class="icon" d="m123.05 70.42-21.63-8.11a1.75 1.75 0 0 0-0.62-0.11h-36.49a2.29 2.29 0 0 0-0.93 0.2l-18.27 8.1a1.5 1.5 0 0 0-0.87 1.6l3.48 21.89a2.09 2.09 0 0 0 0.78 1.33c2.83 2.2 13.41 10.88 13.41 10.88l-0.37-20.93-2.3-5.33-0.15-0.34-0.07-0.16a0.51 0.51 0 0 0-0.07-0.11 3.09 3.09 0 0 0-0.55-0.41l-1.26-1.35c-0.83-0.56-1.68-2.2-2.5-2.2h0.17s-0.07 0-0.11-0.06l0.15 0.06c0.82 0 1.65 1.49 2.48 2l1.33 1 0.33 0.32a1.57 1.57 0 0 1 0.36 0.34 1.33 1.33 0 0 1 0.14 0.22l0.26 0.52 2.71 5.26v0.17c1-1.6 2-3.19 2.91-4.8 0.13-0.21 0.25-0.42 0.39-0.63l0.21-0.33a2.25 2.25 0 0 1 0.36-0.42 2.29 2.29 0 0 1 1-0.49 2.43 2.43 0 0 1 0.57-0.06h0.39l3.1 0.18 6.21 0.35c2.07 0.11 4.14 0.26 6.21 0.38l1.21 0.27-1.24-0.26c-2.07 0-4.15 0.11-6.22 0.14l-6.22 0.11-3.11 0.05h-0.58l-0.2 0.09a0.66 0.66 0 0 0-0.16 0.13 0.82 0.82 0 0 0-0.12 0.16l-0.18 0.31c-0.12 0.22-0.26 0.43-0.38 0.65-1 1.63-1.9 3.31-2.9 4.94l0.11 20.23h43.3a1.91 1.91 0 0 0 1.23-0.45c2.44-2 12.44-10.4 13.25-11.1a1.73 1.73 0 0 0 0.6-1.17c0.28-3.35 1.45-17.51 1.78-21.58a1.46 1.46 0 0 0-0.93-1.48zm-68.2 6-0.2-0.08h0.18zm52.06-6.22v0.23a2.14 2.14 0 0 1-0.1 0.37 1.49 1.49 0 0 1-0.14 0.31 3.15 3.15 0 0 1-0.76 0.9 7.79 7.79 0 0 1-1.76 1.08 16.47 16.47 0 0 1-1.79 0.7 32.58 32.58 0 0 1-3.47 0.92l-1.65 0.32a15.83 15.83 0 0 1-1.59 0.23q-1.55 0.14-2.94 0.18h-4.78-8.31c-1.32 0-2.93 0.06-4.78 0-0.93 0-1.91-0.08-2.95-0.18s-2.11-0.34-3.23-0.56a31.55 31.55 0 0 1-3.47-0.92 16.43 16.43 0 0 1-1.79-0.7 7.84 7.84 0 0 1-1.75-1.06 3.24 3.24 0 0 1-0.76-0.89 2.2 2.2 0 0 1-0.24-0.63 2.87 2.87 0 0 1 0-0.3v-0.11-0.2a3.09 3.09 0 0 1 1.45-2 14.42 14.42 0 0 1 4-1.71 50.69 50.69 0 0 1 8.66-1.56 92.61 92.61 0 0 1 18.08 0 50.69 50.69 0 0 1 8.61 1.58 14.38 14.38 0 0 1 4 1.71 4.87 4.87 0 0 1 0.87 0.76 2.48 2.48 0 0 1 0.58 1.16v0.3l0.01 0.07zm3 6.9-0.26 0.1 0.29-0.13zv-0.06h0.08z"/>
</svg>
