<svg xmlns="http://www.w3.org/2000/svg" viewBox="0 0 170.05 108"><defs><style>.cls-1{fill:#fff;}</style></defs><title>Asset 7</title><g id="Layer_2" data-name="Layer 2"><g id="contact"><path class="cls-1" d="M89.14,13.63c-4.07,4.17-7.81,8.23-11.87,11.94-.73.67-3.12.41-4.18-.28-12.39-8.1-25-8.45-37.38-.54C23.2,32.77,18,44.92,20.3,59.45c2.25,14.34,11,23.88,25,28.07C63,92.81,81.84,82.13,84.73,64.81c-1.77-.19-3.5-.53-5.24-.54-6.89-.07-13.78-.09-20.66,0-2.74,0-4.27-.59-4.51-3.83-1-14-1.14-14,12.8-14,11.09,0,22.18.11,33.26-.07,3.34-.05,4.92.91,5.15,4.37,1.77,26.73-12.25,49.75-38.75,55.89C37.61,113.36,7.69,95.1,1.32,66-5.3,35.79,13.66,6.66,43.63,1,60.51-2.22,77.84,2.53,89.14,13.63Z"/><path class="cls-1" d="M124.92,46.42h14.42V31.51h14.95c0,3.64.11,7.25,0,10.85-.12,3,1.07,4.35,4.13,4.05,1.33-.13,2.68,0,4,0,7.64,0,7.64,0,7.64,7.5,0,7.25,0,7.25-7.42,7.26-8.32,0-8.27,0-8.37,6.55-.15,10.5,1.6,9-9.48,9.17-1.48,0-3-.14-5.25-.26,0-3.82-.17-7.44.05-11,.2-3.25-1-4.36-4.27-4.48C123,60.64,122.64,60.06,124.92,46.42Z"/></g></g></svg>