<svg xmlns="http://www.w3.org/2000/svg" viewBox="0 0 107.74 107.66"><defs><style>.cls-1{fill:#fff;}</style></defs><title>Asset 5</title><g id="Layer_2" data-name="Layer 2"><g id="contact"><path class="cls-1" d="M78.43.37c9.34.52,17.38,4,23.11,11.71a29.76,29.76,0,0,1,5.76,17.17c.34,12.32.45,24.66.44,37a107.44,107.44,0,0,1-.93,15.84c-2.12,14.09-11.86,23.3-26,24.82-5.13.55-10.32.68-15.49.73-9.39.09-18.79,0-28.19-.09-5-.06-10-.18-14.9-1.53-12-3.33-19.09-11.29-21.07-23.44A119.84,119.84,0,0,1,.07,65.11c-.14-9.39,0-18.79.08-28.19.07-5,.18-10,1.53-14.9C5,10,13,2.93,25.12,1,36.11-.34,70.3-.09,78.43.37ZM98,53.83c0-4.43.09-8.86,0-13.29-.11-4.26-.22-8.53-.68-12.76-1-9.28-6.6-15.54-15.68-17.1a96,96,0,0,0-14.58-1c-8.77-.15-17.55-.11-26.32,0-4.26,0-8.52.26-12.76.68A19.4,19.4,0,0,0,16.83,15c-4.45,3.9-6.19,9-6.54,14.68s-.48,11.41-.45,17.12c0,10.3.14,20.61.45,30.9a20.39,20.39,0,0,0,4.77,13c4,4.59,9.22,6.5,15,6.65,12.53.34,41,.7,45.06.28,7,0,12.84-2.26,16-5.19,4-3.81,6-9.81,6.49-14.7C98,69.8,98.11,53.83,98,53.83Z"/><path class="cls-1" d="M81.62,53.73A27.7,27.7,0,1,1,53.87,26.05,27.69,27.69,0,0,1,81.62,53.73Zm-9.79.08a17.91,17.91,0,1,0-18,17.86A17.89,17.89,0,0,0,71.84,53.81Z"/><path class="cls-1" d="M82.65,31.47a6.49,6.49,0,1,1,6.52-6.42A6.43,6.43,0,0,1,82.65,31.47Z"/></g></g></svg>