<svg xmlns="http://www.w3.org/2000/svg" viewBox="0 0 160.75 208.87"><defs><style>.cls-1{font-size:26.71px;font-family:BrandonGrotesque-Regular, Brandon Grotesque;}.cls-1,.cls-2{fill:#fff;}</style></defs><title>Asset 14</title><g id="Layer_2" data-name="Layer 2"><g id="home"><text class="cls-1" transform="translate(42.22 195.02) scale(1.06 1)">interns</text></g><g id="intern"><path class="cls-2" d="M90.73,70.33c1.3.28,1.12.73.71,1.07A2.66,2.66,0,0,1,90,72c-3.24.35-18.67,2-19.65,2a.92.92,0,0,1-.62-.23c-.52-.47-.14-1.2.64-1.28l20.1-2.09A.79.79,0,0,1,90.73,70.33Zm-.24-4.55-20.1,2.09c-.78.08-1.16.81-.64,1.28a.92.92,0,0,0,.62.23c1,0,16.41-1.61,19.65-2a2.66,2.66,0,0,0,1.41-.55c.42-.35.6-.8-.71-1.07A.79.79,0,0,0,90.48,65.78Zm0,9.08-20.1,2.09c-.78.08-1.16.81-.64,1.28a.92.92,0,0,0,.62.23c1,0,16.41-1.61,19.65-2a2.66,2.66,0,0,0,1.41-.55c.42-.35.6-.8-.71-1.07A.79.79,0,0,0,90.48,74.85Zm0,9.08L70.39,86c-.78.08-1.16.81-.64,1.28a.92.92,0,0,0,.62.23c1,0,16.41-1.61,19.65-2A2.66,2.66,0,0,0,91.43,85c.42-.35.6-.8-.71-1.07A.79.79,0,0,0,90.48,83.93Zm0-4.54-20.1,2.09c-.78.08-1.16.81-.64,1.28a.92.92,0,0,0,.62.23c1,0,16.41-1.61,19.65-2a2.66,2.66,0,0,0,1.41-.55c.42-.35.6-.8-.71-1.07A.79.79,0,0,0,90.48,79.39Zm0,9.08-20.1,2.09c-.78.08-1.16.81-.64,1.28a.92.92,0,0,0,.62.23c1,0,16.41-1.61,19.65-2a2.66,2.66,0,0,0,1.41-.55c.42-.35.6-.8-.71-1.07A.79.79,0,0,0,90.48,88.47Zm0,4.54-20.1,2.09c-.78.08-1.16.81-.64,1.28a.92.92,0,0,0,.62.23c1,0,16.41-1.61,19.65-2a2.66,2.66,0,0,0,1.41-.55c.42-.35.6-.8-.71-1.07A.79.79,0,0,0,90.48,93Zm0,9.08-20.1,2.09c-.78.08-1.16.81-.64,1.28a.92.92,0,0,0,.62.23c1,0,16.41-1.61,19.65-2a2.66,2.66,0,0,0,1.41-.55c.42-.35.6-.8-.71-1.07A.79.79,0,0,0,90.48,102.08Zm0-4.54-20.1,2.09c-.78.08-1.16.81-.64,1.28a.92.92,0,0,0,.62.23c1,0,16.41-1.61,19.65-2a2.66,2.66,0,0,0,1.41-.55c.42-.35.6-.8-.71-1.07A.79.79,0,0,0,90.48,97.55Zm0,9.08-20.1,2.09c-.78.08-1.16.81-.64,1.28a.92.92,0,0,0,.62.23c1,0,16.41-1.61,19.65-2a2.66,2.66,0,0,0,1.41-.55c.42-.35.6-.8-.71-1.07A.79.79,0,0,0,90.48,106.62Z"/><path class="cls-2" d="M104.63,62.22H56.22c-3.26,0-5.69-1.89-5-3.79C53.93,50.72,65,44.8,78.58,44.31c0,0,0-.31,0-.31v1.08h0a32.43,32.43,0,0,0-6.32.85,2.17,2.17,0,0,0-1.15.78c-.36.41-.54,1,.42,1.32a.44.44,0,0,0,.19,0,54.43,54.43,0,0,1,6.86-.61l0,4.61a.93.93,0,0,0,1.85.23c.05-.33.09-2.25.11-4.83a54.32,54.32,0,0,1,7,.5c.61.08,1-.64.63-1.3a.79.79,0,0,0-.45-.4,38.55,38.55,0,0,0-7-.63h-.11c0-.46,0-.94,0-1.42,14.31,0,26.24,6.17,29.08,14.21C110.31,60.34,107.89,62.22,104.63,62.22Z"/><path class="cls-2" d="M81,121.28a.5.5,0,0,1-.62,0l-4.62-3.8-4-3.29a.43.43,0,0,1,.31-.76H89.28a.43.43,0,0,1,.31.76l-4,3.29Z"/><path class="cls-2" d="M160.65,89l.1-17.39L142,63l-.31.54a1.7,1.7,0,0,0-.1-.37,60.92,60.92,0,0,0-2.35-6.9l-.26-.69c-.94-2.23-3.2-6.58-3.2-6.58l7.39-19.41L130.92,17.28l-19.22,7.16a4,4,0,0,1,0,.58,52.2,52.2,0,0,0-7.06-3.47A62.08,62.08,0,0,0,97.34,19l-.08.2,0-.22L88.79.08,71.47,0,62.92,18.81,64,18.9a75.82,75.82,0,0,0-7.49,2.58l-.7.29A61.07,61.07,0,0,0,49.29,25a1.35,1.35,0,0,0-.24.13L29.58,17.67,17.29,29.92l7.33,19.63.8-.74a2,2,0,0,0-.19.34A59.54,59.54,0,0,0,21.88,56c-1,2.41-2.6,7.59-2.63,7.77L.09,72.08,0,89.45l19.11,8.73V96.32c.1.37.22.72.3,1.08a63.63,63.63,0,0,0,2.51,7.24,61.1,61.1,0,0,0,3.37,6.9c.16.3.34.6.5.88l-.65-.64-7.5,19.64,12.21,12.34,19.66-7.35-1.59-1.61c.49.29.95.58,1.45.83a61.91,61.91,0,0,0,14.12,5.85,8.22,8.22,0,0,0,1,.29H63.37L71.94,161l17.34-.11L98,141.57l-2,.17c.52-.13,1.05-.22,1.58-.38a61,61,0,0,0,7.25-2.45,63.36,63.36,0,0,0,6.88-3.33l.46-.26-.4.42.09.23,19.37,7.42,12.28-12.25-7.33-19.63-.05.12-.07,0-.87.87c.2-.32.39-.66.57-1a60.19,60.19,0,0,0,3.37-6.91,64.75,64.75,0,0,0,2.41-7.65c0-.09.3.58.3.58Zm-80.28,48.9a57.41,57.41,0,1,1,57.3-57.41A57.36,57.36,0,0,1,80.38,137.93Z"/></g></g></svg>