<svg xmlns="http://www.w3.org/2000/svg" viewBox="0 0 107.95 108"><defs><style>.cls-1{fill:#fff;}</style></defs><title>Asset 6</title><g id="Layer_2" data-name="Layer 2"><g id="contact"><path class="cls-1" d="M37.27,108V35.32H60.42v9.94c1-1.27,1.73-2.32,2.53-3.33a20.39,20.39,0,0,1,13.61-8,33.12,33.12,0,0,1,6.32-.43A24.65,24.65,0,0,1,98,39.13c4.81,4.1,7.32,9.45,8.75,15.41a42.45,42.45,0,0,1,1.16,10q0,21,0,42.07V108H84.84v-1.29c0-12.52.05-25,0-37.57a27.07,27.07,0,0,0-1.3-8.84c-1.83-5.23-5.87-8-11.4-7.56a12.11,12.11,0,0,0-9.32,5.86,15.67,15.67,0,0,0-2.32,9q0,19.52,0,39V108Z"/><path class="cls-1" d="M1.44,35.31h23V108h-23Z"/><path class="cls-1" d="M12.82,25.37a12.4,12.4,0,0,1-9.23-3.46A10.9,10.9,0,0,1,.07,14.49,15.3,15.3,0,0,1,.64,8.32a11.1,11.1,0,0,1,6.47-7c4.8-1.92,9.58-1.81,14,1.15A11.15,11.15,0,0,1,25.8,10a12.92,12.92,0,0,1-2.2,10.53A11.55,11.55,0,0,1,16.13,25C15,25.23,13.93,25.26,12.82,25.37Z"/></g></g></svg>