<!-- Generator: Adobe Illustrator 23.0.2, SVG Export Plug-In . SVG Version: 6.00 Build 0)  -->
<svg version="1.1" id="Layer_1" xmlns="http://www.w3.org/2000/svg" xmlns:xlink="http://www.w3.org/1999/xlink" x="0px" y="0px"
	 viewBox="0 0 401 239" style="enable-background:new 0 0 401 239;" xml:space="preserve">
<g>
	<path d="M373.8,27.4c-5-4-11.3-6.9-18.8-8.6h0c-5.6-1.3-12-1.9-19.2-1.9c-13.2,0-42.2,1.9-42.2,1.9l0,26.1l26.2,8.4v26.8l-26.2,8.4
		l0,53.5H338v-36.4c15.9-0.4,29-5.1,38.1-13.7c8.3-7.9,12.8-19.3,12.8-32.2C388.9,46.8,383.5,35,373.8,27.4z"/>
	<g>
		<polygon points="279.2,18.7 237.6,142.5 195.3,142.5 155.7,18.7 195.6,18.7 204,44.9 230.8,44.9 239.2,18.7 		"/>
	</g>
	<g>
		<path d="M16.8,205.1v0.3c0,7,7.6,12.2,19.7,12.2c11.7,0,17.9-4.9,17.9-11.7c0-8.2-8.9-11.1-19.5-14.3c-10.2-3.1-22.4-7-22.4-18.3
			c0-9.8,8.7-16.4,22.3-16.4c13.8,0,23.5,6.8,23.5,16.3v0.7h-4.7v-0.4c0-7-7.2-12.2-18.8-12.2c-11.2,0-17.3,4.9-17.3,11.7
			c0,8,8.5,10.9,18.7,14.1c10.1,3.1,23.2,6.9,23.2,18.7c0,9.9-9.1,16.3-23,16.3c-14.3,0-24.4-6.8-24.4-16.3v-0.6h4.8V205.1z"/>
		<path d="M74.6,158h50.1v4.7h-22.8v58.1h-4.7v-58.1H74.6V158z"/>
		<path d="M196.6,158v39c0,14.1-9.2,24.9-26.3,24.9S144,211,144,197v-39h4.7v38.9c0,11.8,7.6,20.4,21.6,20.4
			c14.1,0,21.6-8.6,21.6-20.4V158H196.6z"/>
		<path d="M221.1,158h24.5c19.1,0,29.2,13.8,29.2,31.4s-10.1,31.4-29.2,31.4h-24.5V158z M225.9,162.7v53.4h19.6
			c15.9,0,24.7-11.5,24.7-26.7s-8.9-26.7-24.7-26.7L225.9,162.7L225.9,162.7z"/>
		<path d="M300.9,158v62.8h-4.8V158H300.9z"/>
		<path d="M356.2,156.8c18,0,32.7,14.6,32.7,32.6S374.4,222,356.2,222s-32.8-14.6-32.8-32.6C323.4,171.5,338,156.8,356.2,156.8z
			 M356.2,217.3c15.3,0,27.8-12.5,27.8-27.8s-12.6-27.8-27.8-27.8c-15.4,0-27.9,12.6-27.9,27.8C328.2,204.8,340.9,217.3,356.2,217.3
			z"/>
	</g>
	<polygon points="141.2,18.7 103,18.7 94.6,44.9 67.9,44.9 59.5,18.7 21.4,18.7 13.5,142.5 39.5,142.5 40.3,120.6 57.3,113.6 
		73.2,128.6 89.4,128.6 105.3,113.6 122.3,120.6 123.1,142.5 149.1,142.5 	"/>
</g>
</svg>
