<?xml version="1.0" encoding="utf-8"?>
<!-- Generator: Adobe Illustrator 21.1.0, SVG Export Plug-In . SVG Version: 6.00 Build 0)  -->
<svg version="1.1" xmlns="http://www.w3.org/2000/svg" xmlns:xlink="http://www.w3.org/1999/xlink" x="0px" y="0px"
	 viewBox="0 0 401 239" style="enable-background:new 0 0 401 239;" xml:space="preserve">
<g id="Layer_1">
</g>
<g id="home">
	<g>
		<g>
			<path d="M333.6,17.6c-13.2,0-24.7-0.5-33.7,1l-8.5,0.9h61.4C347.2,18.2,340.8,17.6,333.6,17.6z M319.5,57.7l-0.5,8.1l-0.6,11.1
				l1.2-0.4l0-10.7v-8.1l0-2.4L319.5,57.7z"/>
			<path d="M386.7,60.4c0,12.9-4.5,24.3-12.8,32.2c-9.1,8.6-22.2,13.3-38.1,13.7v36.4h-44.4V85.5l27-8.6l1.2-0.4l0-10.7v-8.1l0-2.4
				l0.1-1l-0.1,0V47l-28-9c0-0.2-0.1-0.4-0.2-0.7V19.5h61.4c7.5,1.7,13.8,4.6,18.8,8.6C381.3,35.7,386.7,47.5,386.7,60.4z"/>
		</g>
		<g>
			<polygon points="270.9,19.5 270.7,20.3 256.6,62 229.3,143.1 187,143.1 159.1,56.2 147.4,19.5 187.4,19.5 192.7,36.1 195.8,45.7 
				202.7,45.7 205.5,45.7 212.8,45.7 215.9,45.7 222.6,45.7 226.5,33.2 230.9,19.5 			"/>
			<line x1="222.6" y1="45.7" x2="215.9" y2="45.7"/>
		</g>
		<g>
			<path d="M144.9,143.9h-26.4c0,0-0.1-0.1-0.1-0.1v0.1h-0.1l0.1-0.1l-0.6-21.9l-16.9-7.1l-15.8,14.7h0.1v0.5l-0.1,0h0
				c-2.6-0.3-5.2-0.5-7.9-0.5c-2.7,0-5.4,0.2-8,0.5v0.2l-0.2-0.2l-15.9-15L36.1,122l-0.8,21.7l0.3-0.3l0.4,0.4l-0.1,0c0,0,0,0,0,0
				H9.3l7.9-123.6h39.9l5.2,16.2l2.9,9.2h8.2l1.6,0h7.3l9.7,0l2.9-9.2l5.2-16.2h38l2,36.6L144.9,143.9z"/>
			<path d="M118.5,143.9h-0.1v-0.1C118.4,143.9,118.5,143.9,118.5,143.9z"/>
		</g>
		<g>
			<path d="M12.7,206.6v0.3c0,7,7.6,12.2,19.7,12.2c11.7,0,17.9-4.9,17.9-11.7c0-8.2-8.9-11.1-19.5-14.3c-10.2-3.1-22.4-7-22.4-18.3
				c0-9.8,8.7-16.4,22.3-16.4c13.8,0,23.5,6.8,23.5,16.3v0.7h-4.7v-0.4c0-7-7.2-12.2-18.8-12.2c-11.2,0-17.3,4.9-17.3,11.7
				c0,8,8.5,10.9,18.7,14.1c10.1,3.1,23.2,6.9,23.2,18.7c0,9.9-9.1,16.3-23,16.3c-14.3,0-24.4-6.8-24.4-16.3v-0.6H12.7z"/>
			<path d="M70.5,159.5h50.1v4.7H97.8v58.1h-4.7v-58.1H70.5V159.5z"/>
			<path d="M192.5,159.5v39c0,14.1-9.2,24.9-26.3,24.9s-26.3-10.9-26.3-24.9v-39h4.7v38.9c0,11.8,7.6,20.4,21.6,20.4
				c14.1,0,21.6-8.6,21.6-20.4v-38.9H192.5z"/>
			<path d="M217,159.5h24.5c19.1,0,29.2,13.8,29.2,31.4c0,17.6-10.1,31.4-29.2,31.4H217V159.5z M221.8,164.2v53.4h19.6
				c15.9,0,24.7-11.5,24.7-26.7c0-15.2-8.9-26.7-24.7-26.7H221.8z"/>
			<path d="M296.8,159.5v62.8H292v-62.8H296.8z"/>
			<path d="M352.1,158.3c18,0,32.7,14.6,32.7,32.6c0,18-14.6,32.6-32.7,32.6c-18.1,0-32.8-14.6-32.8-32.6
				C319.3,173,333.9,158.3,352.1,158.3z M352.1,218.8c15.3,0,27.8-12.5,27.8-27.8c0-15.3-12.6-27.8-27.8-27.8
				c-15.4,0-27.9,12.6-27.9,27.8C324.1,206.3,336.7,218.8,352.1,218.8z"/>
		</g>
	</g>
</g>
</svg>
