<svg xmlns="http://www.w3.org/2000/svg" viewBox="0 0 378.73 205.99"><defs><style>.cls-1{fill:#fff;}</style></defs><title>Asset 5</title><g id="Layer_2" data-name="Layer 2"><g id="home"><path class="cls-1" d="M325.58.08c-13.16,0-24.75-.51-33.68,1L283.43,2h61.45A86.24,86.24,0,0,0,325.58.08Zm-14.06,40.1-.46,8.11-.63,11.11,1.22-.38,0-10.73V40.18l0-2.36Z"/><path class="cls-1" d="M378.73,42.84c0,12.9-4.54,24.35-12.8,32.16-9.08,8.55-22.21,13.28-38.13,13.75v36.45H283.43V68l27-8.62,1.22-.38,0-10.73V40.18l0-2.36.06-1-.06,0V29.47l-28-9c0-.21-.11-.44-.17-.65V2h61.45a45.78,45.78,0,0,1,18.83,8.64C373.24,18.2,378.73,29.94,378.73,42.84Z"/><polygon class="cls-1" points="262.93 2.02 262.68 2.76 248.61 44.53 221.31 125.61 178.95 125.61 151.08 38.66 139.34 2.02 179.4 2.02 184.69 18.62 187.74 28.19 194.7 28.19 197.45 28.21 204.82 28.21 207.92 28.19 214.53 28.19 218.5 15.71 222.87 2.02 262.93 2.02"/><line class="cls-1" x1="214.53" y1="28.19" x2="207.92" y2="28.19"/><path class="cls-1" d="M136.85,126.42H110.47s-.06-.06-.11-.08v.08h-.13l.13-.13-.59-21.85L92.91,97.36,77.07,112.08h.08v.53l-.13,0h0a64.84,64.84,0,0,0-7.92-.49,63.07,63.07,0,0,0-8,.51v.23l-.21-.21L45,97.57,28,104.48l-.78,21.75.25-.25.36.36-.08,0,0,0H1.33L9.2,2.83H49.09L54.24,19l2.94,9.21h8.15l1.58,0h7.35l9.73,0L86.93,19,92.08,2.83h38l2,36.64Z"/><path class="cls-1" d="M110.47,126.42h-.11v-.08S110.43,126.39,110.47,126.42Z"/><path class="cls-1" d="M4.67,189.09v.32c0,7,7.56,12.15,19.72,12.15,11.67,0,17.94-4.91,17.94-11.67,0-8.21-8.85-11.1-19.47-14.32-10.22-3.14-22.37-7-22.37-18.35,0-9.82,8.69-16.42,22.29-16.42,13.84,0,23.5,6.84,23.5,16.25v.72H41.6v-.4c0-7-7.16-12.15-18.83-12.15-11.18,0-17.3,4.91-17.3,11.67,0,8,8.53,10.86,18.75,14.08C34.28,174,47.4,177.91,47.4,189.66c0,9.9-9.09,16.34-23,16.34C10.06,206,0,199.23,0,189.74v-.64Z"/><path class="cls-1" d="M62.44,142h50.05v4.67H89.8v58.1H85.05v-58.1H62.44Z"/><path class="cls-1" d="M184.51,142v39c0,14.08-9.17,24.95-26.31,24.95S131.88,195.13,131.88,181V142h4.75v38.87c0,11.83,7.56,20.44,21.57,20.44s21.57-8.61,21.57-20.44V142Z"/><path class="cls-1" d="M209,142h24.54c19.07,0,29.21,13.84,29.21,31.38s-10.14,31.38-29.21,31.38H209Zm4.75,4.67v53.43h19.55c15.85,0,24.7-11.51,24.7-26.72s-8.85-26.71-24.7-26.71Z"/><path class="cls-1" d="M288.75,142v62.76H284V142Z"/><path class="cls-1" d="M344,140.81a32.59,32.59,0,1,1-32.75,32.59A32.68,32.68,0,0,1,344,140.81Zm0,60.43a27.84,27.84,0,1,0-27.92-27.84A27.9,27.9,0,0,0,344,201.24Z"/></g></g></svg>