<svg xmlns="http://www.w3.org/2000/svg" viewBox="0 0 160.78 161.11"><defs><style>.cls-1{fill:#e85a36;}</style></defs><title>Asset 21</title><g id="Layer_2" data-name="Layer 2"><g id="intern"><path class="cls-1" d="M160.78,73.22l-3.3-17.08-20.11-4.76-.2.59a1.7,1.7,0,0,0-.17-.34,60.92,60.92,0,0,0-3.65-6.31l-.39-.63c-1.36-2-4.42-5.83-4.42-5.83L132,18.39,117.63,8.65,100.18,19.42a4,4,0,0,1,.11.57,52.2,52.2,0,0,0-7.6-2,62.08,62.08,0,0,0-7.66-1l0,.21-.08-.21L72.95,0l-17,3.3L51.23,23.42l1.08-.13a75.82,75.82,0,0,0-6.84,4l-.63.42a61.07,61.07,0,0,0-5.77,4.44,1.35,1.35,0,0,0-.21.18L18.31,28.8,8.65,43.21,19.66,61l.64-.89a2,2,0,0,0-.12.37,59.54,59.54,0,0,0-1.95,7.41c-.51,2.56-1.07,8-1.06,8.13L0,87.92,3.3,105l20.44,4.84L23.38,108c.17.34.35.66.51,1a63.63,63.63,0,0,0,3.87,6.62,61.1,61.1,0,0,0,4.65,6.12c.21.26.45.53.66.77l-.76-.5-3.53,20.73,14.39,9.72,17.85-11-1.88-1.27c.53.19,1,.39,1.59.54a61.91,61.91,0,0,0,15,3,8.22,8.22,0,0,0,1.06.08l-1.12.23,12.15,17.18,17-3.49L109.58,137l-2,.57c.48-.23,1-.42,1.48-.68a61,61,0,0,0,6.63-3.82,63.36,63.36,0,0,0,6.1-4.6c.13-.11.27-.22.4-.35l-.31.49.14.21,20.44,3.5,9.66-14.41-11-17.82,0,.13H141l-.68,1c.13-.35.25-.72.37-1.09a60.19,60.19,0,0,0,2-7.44,64.75,64.75,0,0,0,.87-8c0-.1.4.51.4.51Zm-69.2,63.62a57.41,57.41,0,1,1,45-67.49A57.36,57.36,0,0,1,91.59,136.84Z"/></g></g></svg>