<svg xmlns="http://www.w3.org/2000/svg" viewBox="0 0 161.14 161.27"><defs><style>.cls-1{fill:#e85a36;}</style></defs><title>Asset 21</title><g id="Layer_2" data-name="Layer 2"><g id="intern"><path class="cls-1" d="M157.65,104.72l3.49-17L144.38,75.59l-.41.47a1.7,1.7,0,0,0,0-.38,60.92,60.92,0,0,0-1-7.23l-.12-.73c-.49-2.37-1.85-7.07-1.85-7.07l11-17.59-9.56-14.51-20.24,3.27a4,4,0,0,1-.12.57,52.2,52.2,0,0,0-6.24-4.78,62.08,62.08,0,0,0-6.68-3.89l-.12.18v-.23L104.51,3.46,87.54,0,75.49,16.79l1,.3a75.82,75.82,0,0,0-7.85,1.07l-.75.15a61.07,61.07,0,0,0-7,1.89,1.35,1.35,0,0,0-.26.09L43,9.16,28.57,18.78l3.36,20.68.93-.57a2,2,0,0,0-.25.3A59.54,59.54,0,0,0,28,45.28c-1.45,2.17-4,6.94-4.09,7.11L3.48,56.77,0,73.79,17,86.08l.36-1.83c0,.38.07.75.08,1.12a63.63,63.63,0,0,0,1,7.59,61.1,61.1,0,0,0,2,7.43c.1.32.21.66.32,1l-.51-.75L9.11,118.4l9.57,14.49,20.72-3.37-1.25-1.89c.42.38.82.76,1.26,1.1a61.91,61.91,0,0,0,12.71,8.49,8.22,8.22,0,0,0,.95.48l-1.12-.22L56.6,158l17,3.27L85.94,144l-2-.23c.54,0,1.07,0,1.62-.06a61,61,0,0,0,7.59-1,63.36,63.36,0,0,0,7.4-1.92l.5-.17-.48.33,0,.24,17.55,11.06,14.44-9.62L129.21,122l-.07.11-.07,0-1,.69c.25-.27.51-.57.76-.87a60.19,60.19,0,0,0,4.65-6.12,64.75,64.75,0,0,0,3.86-7c0-.09.18.62.18.62ZM69.37,137a57.41,57.41,0,1,1,67.4-45.13A57.36,57.36,0,0,1,69.37,137Z"/></g></g></svg>