<svg xmlns="http://www.w3.org/2000/svg" viewBox="0 0 129.31 107.92"><defs><style>.cls-1{fill:#fff;}</style></defs><title>Asset 2</title><g id="Layer_2" data-name="Layer 2"><g id="contact"><path class="cls-1" d="M37.7,84.87C26.33,83.06,17.76,77.8,13.1,66.77c3.79-.84,7.59.51,11.56-1.81-13-4.17-20.36-12.35-21.73-25.78L14.28,41.9l.83-.72C3.42,31.51.53,19.86,6.38,5.31c15.4,17.24,33.89,27,56.78,28.4,0-2.43.1-4.49,0-6.55-.72-12.53,9.37-24.57,22-26.7,7.8-1.31,15.24,0,21.3,5.39,2.86,2.52,5.49,2.88,8.76,1.54,3.61-1.47,7.26-2.86,11.12-4.38-1.76,5.67-6,9.26-10.53,13.53,5.09.55,8.94-1.76,13.06-2.42l.5.6c-2.95,3-5.66,6.28-8.92,8.89-2.56,2-3.21,4.23-3.37,7.32-1.64,31.48-15.69,55.35-44.15,69.75-13,6.56-27,8.12-41.44,6.8a77.71,77.71,0,0,1-29.7-9.23c-.46-.25-.92-.5-1.36-.77-.11-.07-.16-.26-.37-.65C14,97.42,26.6,93.72,37.7,84.87Z"/></g></g></svg>