<svg style="enable-background:new 0 0 168.2 168.4" version="1.1" viewBox="0 0 168.2 168.4" xmlns="http://www.w3.org/2000/svg">
 <style type="text/css">.gear{fill:#E85A36;}</style>
 <path class="gear" d="m145.5 101.2 18.9-8.6v-17.3l-18.8-8.6-6.2-14 7.4-19.4-12.2-12.3-19.2 7.2-14.4-5.5-8.5-19h-17.3l-8.6 18.8-13.6 6.2-19.7-7.3-12.3 12.2 7.3 19.6s-5.3 14-5.4 14.2l-19.2 8.4v17.3l19.1 8.7 6 13.6-7.5 19.6 12.2 12.3 19.7-7.4 13.9 5.4 8.6 19.2h17.3l8.7-19.4 13.8-5.8 19.5 7.7 12.3-12.2-7.3-19.6 5.5-14zm-61.4 40.4c-31.7 0-57.5-25.6-57.5-57.3s25.6-57.5 57.3-57.5 57.5 25.6 57.5 57.3v0.1c0 31.7-25.6 57.4-57.3 57.4z"/>
</svg>
