<svg style="enable-background:new 0 0 168.2 168.4" version="1.1" viewBox="0 0 168.2 168.4" xmlns="http://www.w3.org/2000/svg">
 <style type="text/css">.gear{fill:#E85A36;}</style>
 <path class="gear" d="m145.5 101.2 18.9-8.6v-17.3l-18.8-8.6-6.2-14 7.4-19.4-12.2-12.3-19.2 7.2-14.4-5.5-8.5-19h-17.3l-8.6 18.8-13.6 6.2-19.7-7.3-12.3 12.2 7.3 19.6s-5.3 14-5.4 14.2l-19.2 8.4v17.3l19.1 8.7 6 13.6-7.5 19.6 12.2 12.3 19.7-7.4 13.9 5.4 8.6 19.2h17.3l8.7-19.4 13.8-5.8 19.5 7.7 12.3-12.2-7.3-19.6 5.5-14zm-61.4 40.4c-31.7 0-57.5-25.6-57.5-57.3s25.6-57.5 57.3-57.5 57.5 25.6 57.5 57.3v0.1c0 31.7-25.6 57.4-57.3 57.4z"/>
 <path class="icon" d="m96.335 46.63a1.46 1.46 0 0 0-2 1.12v20.57a2.78 2.78 0 0 1-3.1 2.91h-14.42c-1.91 0-2-1.1-2-2.91v-20.57c0-0.9-1.74-1.49-2.6-1.1-9.85 4.43-17.05 14-17.05 25a28.61 28.61 0 0 0 17.27 26.12 0.83 0.83 0 0 1 0.51 0.76v22.44a0.91 0.91 0 0 0 0.91 0.91001h19.92a0.91 0.91 0 0 0 0.91-0.91001v-22.27a1.08 1.08 0 0 1 0.67-1c10.26-4.33 17.68-14.88 17.68-26.13-0.01-11.01-6.8-20.52-16.7-24.94zm-19.25 42.51c-0.29 0.67-0.69 0.59-1 0.39a1 1 0 0 1-0.47-0.71c-0.23-1.64-1.33-9.47-1.28-10a0.42 0.42 0 0 1 0.23-0.32c0.45-0.28 1.1-0.1 1.15 0.29l1.39 10.19a0.23 0.23 0 0 1-0.02 0.16zm4.15-0.12c-0.29 0.67-0.69 0.59-1 0.39a1 1 0 0 1-0.47-0.71c-0.23-1.64-1.33-9.47-1.28-10a0.42 0.42 0 0 1 0.23-0.32c0.45-0.28 1.1-0.1 1.15 0.29l1.38 10.21a0.24 0.24 0 0 1-0.01 0.14zm4.14-0.14c-0.29 0.67-0.69 0.59-1 0.39a1 1 0 0 1-0.47-0.71c-0.23-1.64-1.33-9.47-1.28-10a0.44 0.44 0 0 1 0.23-0.32c0.44-0.28 1.1-0.1 1.15 0.29l1.39 10.25a0.23 0.23 0 0 1-0.02 0.1zm4.15-0.12c-0.29 0.67-0.69 0.59-1 0.39a1 1 0 0 1-0.47-0.71c-0.23-1.64-1.32-9.47-1.28-10a0.43 0.43 0 0 1 0.23-0.32c0.44-0.28 1.09-0.1 1.15 0.29l1.43 10.25a0.2 0.2 0 0 1-0.06 0.13zm4.15-0.12c-0.29 0.67-0.69 0.59-1 0.39a1 1 0 0 1-0.47-0.71c-0.23-1.64-1.33-9.47-1.28-10a0.44 0.44 0 0 1 0.23-0.32c0.45-0.28 1.1-0.1 1.15 0.29l1.38 10.25a0.24 0.24 0 0 1-0.01 0.13z"/>
</svg>
