<svg style="enable-background:new 0 0 168.2 168.4" version="1.1" viewBox="0 0 168.2 168.4" xmlns="http://www.w3.org/2000/svg">
 <style type="text/css">.gear{fill:#E85A36;}</style>
 <path class="gear" d="m145.5 101.2 18.9-8.6v-17.3l-18.8-8.6-6.2-14 7.4-19.4-12.2-12.3-19.2 7.2-14.4-5.5-8.5-19h-17.3l-8.6 18.8-13.6 6.2-19.7-7.3-12.3 12.2 7.3 19.6s-5.3 14-5.4 14.2l-19.2 8.4v17.3l19.1 8.7 6 13.6-7.5 19.6 12.2 12.3 19.7-7.4 13.9 5.4 8.6 19.2h17.3l8.7-19.4 13.8-5.8 19.5 7.7 12.3-12.2-7.3-19.6 5.5-14zm-61.4 40.4c-31.7 0-57.5-25.6-57.5-57.3s25.6-57.5 57.3-57.5 57.5 25.6 57.5 57.3v0.1c0 31.7-25.6 57.4-57.3 57.4z"/>
 <path class="icon" d="m122 96.71-1.63 0.42a1.48 1.48 0 0 1-1.66-0.68c-0.87-1.58-3.39-5.37-10.64-13.43-6-6.63-9.4-8.06-11.25-8a2 2 0 0 0-2 1.77l-0.93 8.52a1.67 1.67 0 0 1-1.38 1.43l-1.22-0.29-1.18 24.75h-13.11l-0.32-25-0.75 0.25a1.39 1.39 0 0 1-1.48-1.41c0.3-5.52-0.37-8.44-0.91-9.88a3.47 3.47 0 0 0-1.43-1.72c-8.38-5.37-17.14 0-17.14 0l-8.14 0.22-0.59-0.27a1.59 1.59 0 0 1-0.94-1.4l-0.2-12.75a1.79 1.79 0 0 1 1-1.61l0.9-0.43h6.49c10.11 4.75 16.35 1.78 18.1 0.7a2.05 2.05 0 0 1 1.23-0.29c3.38 0.28 18.07 1.72 28.56 6.64 10.21 4.8 19.23 24.89 21.62 30.56a1.41 1.41 0 0 1-1 1.9z"/>
</svg>
