<svg style="enable-background:new 0 0 168.2 168.4" version="1.1" viewBox="0 0 168.2 168.4" xmlns="http://www.w3.org/2000/svg" xmlns:xlink="http://www.w3.org/1999/xlink">
 <style type="text/css">.gear{fill:#E85A36;}</style>
 <path class="gear" d="m145.5 101.2 18.9-8.6v-17.3l-18.8-8.6-6.2-14 7.4-19.4-12.2-12.3-19.2 7.2-14.4-5.5-8.5-19h-17.3l-8.6 18.8-13.6 6.2-19.7-7.3-12.3 12.2 7.3 19.6s-5.3 14-5.4 14.2l-19.2 8.4v17.3l19.1 8.7 6 13.6-7.5 19.6 12.2 12.3 19.7-7.4 13.9 5.4 8.6 19.2h17.3l8.7-19.4 13.8-5.8 19.5 7.7 12.3-12.2-7.3-19.6 5.5-14zm-61.4 40.4c-31.7 0-57.5-25.6-57.5-57.3s25.6-57.5 57.3-57.5 57.5 25.6 57.5 57.3v0.1c0 31.7-25.6 57.4-57.3 57.4z"/>
 <g transform="translate(3.6552 1.5061)" clip-path="url(#clipPath6973)">
  <g id="g6969">
   <path class="icon" d="m90.73 70.33c1.3 0.28 1.12 0.73 0.71 1.07a2.66 2.66 0 0 1-1.44 0.6c-3.24 0.35-18.67 2-19.65 2a0.92 0.92 0 0 1-0.62-0.23c-0.52-0.47-0.14-1.2 0.64-1.28l20.1-2.09a0.79 0.79 0 0 1 0.26-0.07zm-0.24-4.55-20.1 2.09c-0.78 0.08-1.16 0.81-0.64 1.28a0.92 0.92 0 0 0 0.62 0.23c1 0 16.41-1.61 19.65-2a2.66 2.66 0 0 0 1.41-0.55c0.42-0.35 0.6-0.8-0.71-1.07a0.79 0.79 0 0 0-0.24 0.02zm0 9.08-20.1 2.09c-0.78 0.08-1.16 0.81-0.64 1.28a0.92 0.92 0 0 0 0.62 0.23c1 0 16.41-1.61 19.65-2a2.66 2.66 0 0 0 1.41-0.55c0.42-0.35 0.6-0.8-0.71-1.07a0.79 0.79 0 0 0-0.24 0.01zm0 9.08-20.1 2.06c-0.78 0.08-1.16 0.81-0.64 1.28a0.92 0.92 0 0 0 0.62 0.23c1 0 16.41-1.61 19.65-2a2.66 2.66 0 0 0 1.41-0.51c0.42-0.35 0.6-0.8-0.71-1.07a0.79 0.79 0 0 0-0.24 0zm0-4.54-20.1 2.09c-0.78 0.08-1.16 0.81-0.64 1.28a0.92 0.92 0 0 0 0.62 0.23c1 0 16.41-1.61 19.65-2a2.66 2.66 0 0 0 1.41-0.55c0.42-0.35 0.6-0.8-0.71-1.07a0.79 0.79 0 0 0-0.24 0.01zm0 9.08-20.1 2.09c-0.78 0.08-1.16 0.81-0.64 1.28a0.92 0.92 0 0 0 0.62 0.23c1 0 16.41-1.61 19.65-2a2.66 2.66 0 0 0 1.41-0.55c0.42-0.35 0.6-0.8-0.71-1.07a0.79 0.79 0 0 0-0.24 0.01zm0 4.54-20.1 2.09c-0.78 0.08-1.16 0.81-0.64 1.28a0.92 0.92 0 0 0 0.62 0.23c1 0 16.41-1.61 19.65-2a2.66 2.66 0 0 0 1.41-0.55c0.42-0.35 0.6-0.8-0.71-1.07a0.79 0.79 0 0 0-0.24 0zm0 9.08-20.1 2.09c-0.78 0.08-1.16 0.81-0.64 1.28a0.92 0.92 0 0 0 0.62 0.23c1 0 16.41-1.61 19.65-2a2.66 2.66 0 0 0 1.41-0.55c0.42-0.35 0.6-0.8-0.71-1.07a0.79 0.79 0 0 0-0.24 0zm0-4.54-20.1 2.09c-0.78 0.08-1.16 0.81-0.64 1.28a0.92 0.92 0 0 0 0.62 0.23c1 0 16.41-1.61 19.65-2a2.66 2.66 0 0 0 1.41-0.55c0.42-0.35 0.6-0.8-0.71-1.07a0.79 0.79 0 0 0-0.24 0.01zm0 9.08-20.1 2.09c-0.78 0.08-1.16 0.81-0.64 1.28a0.92 0.92 0 0 0 0.62 0.23c1 0 16.41-1.61 19.65-2a2.66 2.66 0 0 0 1.41-0.55c0.42-0.35 0.6-0.8-0.71-1.07a0.79 0.79 0 0 0-0.24 0z"/>
   <path class="icon" d="m104.63 62.22h-48.41c-3.26 0-5.69-1.89-5-3.79 2.71-7.71 13.78-13.63 27.36-14.12v-0.31 1.08a32.43 32.43 0 0 0-6.32 0.85 2.17 2.17 0 0 0-1.15 0.78c-0.36 0.41-0.54 1 0.42 1.32a0.44 0.44 0 0 0 0.19 0 54.43 54.43 0 0 1 6.86-0.61v4.61a0.93212 0.93212 0 0 0 1.85 0.23c0.05-0.33 0.09-2.25 0.11-4.83a54.32 54.32 0 0 1 7 0.5c0.61 0.08 1-0.64 0.63-1.3a0.79 0.79 0 0 0-0.45-0.4 38.55 38.55 0 0 0-7-0.63h-0.11v-1.42c14.31 0 26.24 6.17 29.08 14.21 0.62 1.95-1.8 3.83-5.06 3.83z"/>
   <path class="icon" d="m81 121.28a0.5 0.5 0 0 1-0.62 0l-8.62-7.09a0.43 0.43 0 0 1 0.31-0.76h17.21a0.43 0.43 0 0 1 0.31 0.76l-4 3.29z"/>
  </g>
 </g>
</svg>
