<?xml version="1.0" encoding="UTF-8" standalone="no"?>
<!-- Created with Inkscape (http://www.inkscape.org/) -->

<svg
   xmlns:dc="http://purl.org/dc/elements/1.1/"
   xmlns:cc="http://creativecommons.org/ns#"
   xmlns:rdf="http://www.w3.org/1999/02/22-rdf-syntax-ns#"
   xmlns:svg="http://www.w3.org/2000/svg"
   xmlns="http://www.w3.org/2000/svg"
   xmlns:sodipodi="http://sodipodi.sourceforge.net/DTD/sodipodi-0.dtd"
   xmlns:inkscape="http://www.inkscape.org/namespaces/inkscape"
   width="15.31143mm"
   height="19.939234mm"
   viewBox="0 0 15.31143 19.939234"
   version="1.1"
   id="svg5208"
   inkscape:version="0.92.3 (2405546, 2018-03-11)"
   sodipodi:docname="wrench.svg">
  <defs
     id="defs5202" />
  <sodipodi:namedview
     id="base"
     pagecolor="#ffffff"
     bordercolor="#666666"
     borderopacity="1.0"
     inkscape:pageopacity="0.0"
     inkscape:pageshadow="2"
     inkscape:zoom="3.959798"
     inkscape:cx="57.33608"
     inkscape:cy="23.401244"
     inkscape:document-units="mm"
     inkscape:current-layer="layer1"
     showgrid="false"
     inkscape:window-width="1600"
     inkscape:window-height="837"
     inkscape:window-x="-8"
     inkscape:window-y="-8"
     inkscape:window-maximized="1" />
  <metadata
     id="metadata5205">
    <rdf:RDF>
      <cc:Work
         rdf:about="">
        <dc:format>image/svg+xml</dc:format>
        <dc:type
           rdf:resource="http://purl.org/dc/dcmitype/StillImage" />
        <dc:title></dc:title>
      </cc:Work>
    </rdf:RDF>
  </metadata>
  <g
     inkscape:label="Layer 1"
     inkscape:groupmode="layer"
     id="layer1"
     transform="translate(-127.65976,-129.79229)">
    <path
       inkscape:connector-curvature="0"
       d="m 138.55265,129.82162 a 0.38629167,0.38629167 0 0 0 -0.52916,0.29634 v 5.44248 a 0.73554167,0.73554167 0 0 1 -0.82021,0.76993 h -3.81529 c -0.50536,0 -0.52917,-0.29104 -0.52917,-0.76993 v -5.44248 c 0,-0.23813 -0.46037,-0.39423 -0.68792,-0.29104 -2.60614,1.1721 -4.51114,3.70416 -4.51114,6.61458 a 7.5697292,7.5697292 0 0 0 4.56935,6.91092 0.21960417,0.21960417 0 0 1 0.13494,0.20108 v 5.93725 a 0.24077083,0.24077083 0 0 0 0.24077,0.24077 h 5.2705 a 0.24077083,0.24077083 0 0 0 0.24077,-0.24077 v -5.89227 a 0.28575,0.28575 0 0 1 0.17727,-0.26458 c 2.71463,-1.14565 4.67783,-3.937 4.67783,-6.91357 -0.003,-2.91306 -1.79916,-5.42925 -4.41854,-6.59871 z m -5.09323,11.24744 c -0.0767,0.17727 -0.18256,0.15611 -0.26458,0.10319 a 0.26458333,0.26458333 0 0 1 -0.12435,-0.18785 c -0.0609,-0.43392 -0.3519,-2.50561 -0.33867,-2.64584 a 0.111125,0.111125 0 0 1 0.0608,-0.0847 c 0.11907,-0.0741 0.29105,-0.0265 0.30427,0.0767 l 0.36778,2.69611 a 0.06085417,0.06085417 0 0 1 -0.005,0.0423 z m 1.09803,-0.0318 c -0.0767,0.17727 -0.18257,0.15611 -0.26459,0.10319 a 0.26458333,0.26458333 0 0 1 -0.12435,-0.18785 c -0.0609,-0.43392 -0.3519,-2.50561 -0.33867,-2.64584 a 0.111125,0.111125 0 0 1 0.0609,-0.0847 c 0.11907,-0.0741 0.29105,-0.0265 0.30428,0.0767 l 0.36512,2.7014 a 0.0635,0.0635 0 0 1 -0.003,0.037 z m 1.09537,-0.037 c -0.0767,0.17727 -0.18256,0.1561 -0.26458,0.10319 a 0.26458333,0.26458333 0 0 1 -0.12436,-0.18786 c -0.0608,-0.43391 -0.35189,-2.5056 -0.33866,-2.64583 a 0.11641667,0.11641667 0 0 1 0.0609,-0.0847 c 0.11642,-0.0741 0.29104,-0.0265 0.30427,0.0767 l 0.36777,2.71198 a 0.06085417,0.06085417 0 0 1 -0.005,0.0265 z m 1.09802,-0.0317 c -0.0767,0.17727 -0.18256,0.1561 -0.26458,0.10319 a 0.26458333,0.26458333 0 0 1 -0.12436,-0.18786 c -0.0608,-0.43391 -0.34925,-2.5056 -0.33866,-2.64583 a 0.11377083,0.11377083 0 0 1 0.0609,-0.0847 c 0.11642,-0.0741 0.2884,-0.0264 0.30427,0.0767 l 0.37836,2.71198 a 0.05291667,0.05291667 0 0 1 -0.0159,0.0344 z m 1.09802,-0.0318 c -0.0767,0.17727 -0.18256,0.15611 -0.26458,0.10319 a 0.26458333,0.26458333 0 0 1 -0.12436,-0.18786 c -0.0609,-0.43391 -0.35189,-2.5056 -0.33866,-2.64583 a 0.11641667,0.11641667 0 0 1 0.0608,-0.0847 c 0.11906,-0.0741 0.29104,-0.0265 0.30427,0.0767 l 0.36513,2.71198 a 0.0635,0.0635 0 0 1 -0.003,0.0344 z"
       class="icon"
       id="path4634"
       style="stroke-width:0.26458332" />
  </g>
</svg>
